<svg width="184" height="49" viewBox="0 0 184 49" fill="none" xmlns="http://www.w3.org/2000/svg"><g clip-path="url(#a)" fill="#fff"><path d="M113.875 45.845V33.076c-8.665-2.08-17.18-4.127-25.663-6.167-1.452 3.683-.106 7.397 3.503 9.533 5.404 3.195 11.136 3.3 17.024 1.547 1.048-.312 2.132-.479 3.816-.846-.913 3.753-1.598 6.837-2.475 9.865-.142.494-1.109.988-1.75 1.069-11.306 1.481-21.49-.786-29.948-9.055-2.682 1.386-5.389 3.059-8.297 4.238-5.666 2.297-11.564 3.446-17.724 2.479-4.608-.726-8.484-2.817-11.201-6.591-4.452-6.178-5.863-13.136-4.18-20.549 1.246-5.467 4.598-9.578 9.72-11.826 3.185-1.395 6.628-2.509 10.061-2.962C64.55 2.783 70.66 6.668 73.628 14.055c.807 2.01 1.376 4.111 2.168 6.53 2.646-8.33 7.314-14.452 16.166-15.646 8.197-1.108 15.617.998 21.802 7.563V1.306c.469-.262.686-.483.898-.483 7.712.115 15.471-.232 23.123.513 8.489.827 12.214 9.937 7.198 16.558-.892 1.18-2.162 2.066-3.413 3.225.373.197.741.463 1.155.6 9.648 3.29 8.706 14.915 3.841 19.717-2.606 2.574-5.792 4.242-9.406 4.343-7.617.212-15.249.066-23.295.066h.01zM50.168 29.488c.942 3.523 2.853 5.725 6.084 6.4 5.938 1.234 10.964-.852 15.678-4.394 2.701-2.03 3.553-4.41 2.797-7.856-8.146 1.94-16.257 3.875-24.56 5.855v-.005zm75.186 8.068c3.312.418 6.306.448 9.235-.398 2.495-.721 3.856-2.782 3.78-5.321-.075-2.585-1.477-4.5-4.173-4.928-2.466-.393-5.006-.358-7.512-.358-.443 0-1.26.72-1.27 1.129-.106 3.24-.06 6.49-.06 9.876zm-35.66-18.417c4.673 1.098 9.174 2.161 13.631 3.21 1.583-4.087.1-7.438-3.605-8.708-4.688-1.607-8.519.368-10.026 5.493v.005zm-27.6-.565c-.655-2.776-1.693-4.887-4.244-5.744-2.969-.998-5.66-.09-7.813 2-1.896 1.84-2.47 4.178-1.7 7.025 4.659-1.109 9.08-2.162 13.763-3.28h-.005zm63.255.247c2.515-.191 4.592-.196 6.603-.544 2.329-.403 3.509-2.101 3.499-4.5-.01-2.322-1.301-4.02-3.645-4.378-1.638-.247-3.337-.242-4.99-.121-.52.035-1.377.79-1.402 1.254-.136 2.565-.065 5.145-.065 8.29z"/><path d="M27.74 20.897c.535.267.747.413.978.484 10.304 3.26 9.235 16.709 2.48 21.334-2.938 2.016-6.13 3.2-9.628 3.266-6.876.13-13.762.065-20.637.065-.237 0-.474-.126-.933-.257V.772C.64.676 1.275.5 1.91.5c6.463.02 12.92.025 19.383.146 1.487.025 3.015.307 4.446.73 3.892 1.15 6.745 3.462 7.41 7.685.691 4.374-.463 8.148-4.153 10.904-.328.242-.656.489-1.25.932h-.006zm-16.1 5.472v11.292c3.21-.287 6.235-.282 9.129-.907 2.606-.559 3.564-2.529 3.402-5.426-.14-2.53-1.265-4.097-3.916-4.485-2.778-.408-5.621-.332-8.615-.479v.005zm-.036-7.956c2.496-.171 4.688-.1 6.775-.529 2.173-.448 3.201-2.293 3.045-4.56-.136-2.03-1.31-3.673-3.251-3.885-2.107-.232-4.265-.05-6.569-.05v9.024zM173.314 12.009h10.313c.081.846.212 1.572.212 2.297.015 9.736.015 19.476 0 29.21 0 2.53-.05 2.57-2.5 2.59-2.581.026-5.167.006-7.839.006-.192-1.185-.333-2.066-.534-3.321-.933.63-1.679 1.285-2.536 1.683-1.956.907-3.907 2.152-5.973 2.444-7.481 1.053-12.28-2.898-12.653-10.723-.358-7.538-.096-15.106-.136-22.66-.005-1.335.635-1.758 1.86-1.738 2.268.035 4.537.09 6.8-.015 1.815-.086 2.304.736 2.289 2.403-.051 5.538 0 11.08.015 16.619 0 .67 0 1.345.045 2.015.126 2.076.393 4.207 2.722 4.923 2.541.776 5.061.287 7.113-1.42.549-.46.64-1.674.65-2.54.056-6.294.026-12.592.041-18.886 0-.902.075-1.804.121-2.892l-.01.005z"/></g><defs><clipPath id="a"><path fill="#fff" transform="translate(0 .5)" d="M0 0h183.849v48H0z"/></clipPath></defs></svg>