<svg width="559" height="674" viewBox="0 0 559 674" fill="none" xmlns="http://www.w3.org/2000/svg"><path d="M733.238 500.19c-40.828 29.329-81.376 63.455-126.441 89.926-87.784 51.58-182.167 84.778-285.988 83.714-77.658-.828-146.578-25.939-200.469-81.601C31.985 501.14-8.1 389.814 1.79 263.518 8.98 170.293 54.271 94.478 133.208 45.045c49.108-30.714 103.216-57.408 158.673-73.183C417.699-63.91 527.747-14.62 594.53 100.004c18.15 31.2 32.617 64.469 51.506 102.436l87.119 297.762.083-.012zM245.292 411.2c24.049 55.797 60.85 87.486 115.715 90.81 100.813 6.003 178.562-40.54 247.64-110.339 39.6-40.013 47.881-81.287 27.087-136.288-129.507 51.676-258.446 103.182-390.43 155.9l-.012-.083zm170.011-208.688c-17.512-44.195-39.726-76.497-83.819-84.456-51.327-9.274-93.479 12.187-123.88 51.868-26.776 34.907-30.587 74.846-10.995 119.924A279385.71 279385.71 0 0 0 415.386 202.5l-.083.012z" fill="#1AE0B0" fill-opacity=".8"/></svg>