<svg width="1920" height="1080" viewBox="0 0 1920 1080" fill="none" xmlns="http://www.w3.org/2000/svg"><path fill-rule="evenodd" clip-rule="evenodd" d="M1920 149.331V0h-117.45c40.26 35.439 76.13 79.222 106.74 130.74a850.644 850.644 0 0 1 10.71 18.591zM1166.59 0H0v1280h1920V976.843c-152.43 86.557-316.05 142.197-495.49 141.027-136.54-.95-257.57-43.65-351.98-138.908-154.789-155.888-224.586-346.825-206.422-563.778 13.216-160.142 93.314-290.618 232.412-375.995 22.15-13.58 44.87-26.71 68.07-39.189zM1920 421.197v222.322c-118.8 113.611-252.49 188.396-423.76 179.03-96.41-5.368-160.9-59.518-202.84-155.111l64.59-25.391c189.37-74.436 375.54-147.616 562.01-220.85zm-473.32-257.841c77.48 13.398 116.34 68.735 146.86 144.524l.15-.021c-131.07 51.569-254.82 100.17-385.2 151.347-34.17-77.293-27.23-145.906 20.06-206.015 53.7-68.333 127.95-105.447 218.13-89.835z" fill="#1AE0B0" fill-opacity=".7"/></svg>