<svg width="1920" height="1080" viewBox="0 0 1920 1080" fill="none" xmlns="http://www.w3.org/2000/svg">
<path fill-rule="evenodd" clip-rule="evenodd" d="M1920 149.331V0H1802.55C1842.81 35.439 1878.68 79.2217 1909.29 130.74C1912.94 136.888 1916.5 143.082 1920 149.331ZM1166.59 0H0V1280H1920V976.843C1767.57 1063.4 1603.95 1119.04 1424.51 1117.87C1287.97 1116.92 1166.94 1074.22 1072.53 978.962C917.741 823.074 847.944 632.137 866.108 415.184C879.324 255.042 959.422 124.566 1098.52 39.1886C1120.67 25.6091 1143.39 12.4798 1166.59 0ZM1920 421.197V643.519C1801.2 757.13 1667.51 831.915 1496.24 822.549C1399.83 817.181 1335.34 763.031 1293.4 667.438L1357.99 642.047C1547.36 567.611 1733.53 494.431 1920 421.197ZM1446.68 163.356C1524.16 176.754 1563.02 232.091 1593.54 307.88L1593.69 307.859C1462.62 359.428 1338.87 408.029 1208.49 459.206C1174.32 381.913 1181.26 313.3 1228.55 253.191C1282.25 184.858 1356.5 147.744 1446.68 163.356Z" fill="#1AE0B0" style="mix-blend-mode:multiply"/>
</svg>
