<svg width="976" height="764" viewBox="0 0 976 764" fill="none" xmlns="http://www.w3.org/2000/svg"><path d="M1142.94 841.924c-63.63 45.704-126.81 98.884-197.038 140.134-136.796 80.382-283.876 132.112-445.663 130.452-121.016-1.29-228.416-40.42-312.395-127.159C50.158 843.405-12.309 669.923 3.104 473.112 14.31 327.837 84.887 209.694 207.896 132.66 284.423 84.798 368.743 43.2 455.162 18.618c196.064-55.745 367.555 21.065 471.624 199.685 28.284 48.621 50.828 100.465 80.264 159.63l135.76 464.009.13-.018zM382.559 703.249c37.477 86.949 94.824 136.332 180.322 141.511 157.099 9.355 278.258-63.175 385.904-171.944 61.705-62.353 74.615-126.671 42.21-212.381-201.815 80.527-402.742 160.792-608.417 242.943l-.019-.129zm264.933-325.204c-27.289-68.87-61.906-119.207-130.617-131.61-79.984-14.452-145.67 18.991-193.046 80.828-41.725 54.395-47.665 116.633-17.133 186.879a436311.853 436311.853 0 0 0 340.926-136.116l-.13.019z" fill="#F6F4F2" fill-opacity=".05"/></svg>