<svg width="1306" height="1267" viewBox="0 0 1306 1267" fill="none" xmlns="http://www.w3.org/2000/svg"><path d="M1639.56 883.251c-91.59 64.428-182.6 139.339-283.66 197.549-196.85 113.43-408.332 186.73-640.665 185.22-173.784-1.21-327.823-55.55-447.99-176.8C70.225 890.804-18.612 647.78 4.507 371.642 21.329 167.813 123.277 1.743 300.316-106.925c110.138-67.519 231.436-126.291 355.665-161.204 281.846-79.174 527.739 27.706 676.299 277.73 40.37 68.057 72.49 140.664 114.46 223.505l192.64 650.172.18-.027zM548.287 692.547C601.671 814.32 683.78 883.3 806.536 890.136c225.564 12.335 399.924-90.007 555.054-243.114 88.93-87.769 107.79-178.051 61.68-298.111-290.22 113.964-579.178 227.555-874.957 343.817l-.026-.181zm382.097-457.482C891.539 138.6 842.078 68.168 743.465 51.115c-114.791-19.872-209.29 27.367-277.636 114.341-60.194 76.508-69.035 163.838-25.541 262.216 165.951-65.138 323.455-126.997 490.282-192.634l-.186.027z" fill="#F6F4F2"/></svg>