<svg id="Layer_1" xmlns="http://www.w3.org/2000/svg" viewBox="0 0 512 96"><style>.st0{fill:#fff}.st1{fill:#04da8d}.st2{fill:#126849}</style><g id="Trustpilot_ratings_5star-RGB"><path id="Rectangle-path" class="st0" d="M0 0h96v96H0z"/><path id="Rectangle-path_00000083796078015144680710000004562823381210314377_" class="st0" d="M104 0h96v96h-96z"/><path id="Rectangle-path_00000101817605268773775870000006959128570609078950_" class="st0" d="M208 0h96v96h-96z"/><path id="Rectangle-path_00000158734878051628444410000003808502388361107884_" class="st0" d="M312 0h96v96h-96z"/><path id="Rectangle-path_00000010308653564624214910000001106221887448448906_" class="st0" d="M416 0h96v96h-96z"/><path id="Shape" class="st0" d="M48 64.7L62.6 61l6.1 18.8L48 64.7zm33.6-24.3H55.9L48 16.2l-7.9 24.2H14.4l20.8 15-7.9 24.2 20.8-15 12.8-9.2 20.7-15z"/><path id="Shape_00000093862491699638045790000010596188672442394248_" class="st0" d="M152 64.7l14.6-3.7 6.1 18.8L152 64.7zm33.6-24.3h-25.7L152 16.2l-7.9 24.2h-25.7l20.8 15-7.9 24.2 20.8-15 12.8-9.2 20.7-15z"/><path id="Shape_00000054246988582704762900000000961449368075787183_" class="st0" d="M256 64.7l14.6-3.7 6.1 18.8L256 64.7zm33.6-24.3h-25.7L256 16.2l-7.9 24.2h-25.7l20.8 15-7.9 24.2 20.8-15 12.8-9.2 20.7-15z"/><path id="Shape_00000099649799838690658630000004094043541553005756_" class="st0" d="M360 64.7l14.6-3.7 6.1 18.8L360 64.7zm33.6-24.3h-25.7L360 16.2l-7.9 24.2h-25.7l20.8 15-7.9 24.2 20.8-15 12.8-9.2 20.7-15z"/><path id="Shape_00000125575599130440853370000000066258754874144407_" class="st0" d="M464 64.7l14.6-3.7 6.1 18.8L464 64.7zm33.6-24.3h-25.7L464 16.2l-7.9 24.2h-25.7l20.8 15-7.9 24.2 20.8-15 12.8-9.2 20.7-15z"/></g><path class="st1" d="M187.6 40.2h-27.2L152 14.8l-8.4 25.4h-27.2l22 15.7-8.4 25.3 22-15.7 22 15.7-8.4-25.4 22-15.6z"/><path class="st2" d="M167.5 61.6l-1.9-5.7-13.6 9.7 15.5-4z"/><path class="st1" d="M83.6 40.2H56.4L48 14.8l-8.4 25.4H12.4l22 15.7L26 81.2l22-15.7 22 15.7-8.4-25.4 22-15.6z"/><path class="st2" d="M63.5 61.6l-1.9-5.7L48 65.6l15.5-4z"/><path class="st1" d="M291.6 40.2h-27.2L256 14.8l-8.4 25.4h-27.2l22 15.7-8.4 25.3 22-15.7 22 15.7-8.4-25.4 22-15.6z"/><path class="st2" d="M271.5 61.6l-1.9-5.7-13.6 9.7 15.5-4z"/><g><path class="st1" d="M395.6 40.1h-27.2L360 14.7l-8.4 25.4h-27.2l22 15.7-8.4 25.3 22-15.7 22 15.7-8.4-25.4 22-15.6z"/><path class="st2" d="M375.5 61.5l-1.9-5.7-13.6 9.7 15.5-4z"/></g><g><path class="st1" d="M499.6 40.1h-27.2L464 14.7l-8.4 25.4h-27.2l22 15.7-8.4 25.3 22-15.7 22 15.7-8.4-25.4 22-15.6z"/><path class="st2" d="M479.5 61.5l-1.9-5.7-13.6 9.7 15.5-4z"/></g></svg>