<svg width="138" height="52" viewBox="0 0 138 52" fill="none" xmlns="http://www.w3.org/2000/svg"><path d="M14.253 32.882l6.016-1.525 2.514 7.747-8.53-6.222zm13.846-10.014h-10.59l-3.256-9.972-3.256 9.972H.407l8.571 6.181-3.255 9.973 8.571-6.181 5.275-3.792 8.53-6.181z" fill="#219653"/><path d="M44.205 17.125V34h-2.202V17.125h2.202zm5.425 0v1.831H36.59v-1.831h13.04zm3.442 6.305V34h-2.145V21.46h2.087l.058 1.97zm3.917-2.04l-.011 1.994a3.109 3.109 0 0 0-.51-.07 5.437 5.437 0 0 0-.534-.023c-.494 0-.93.077-1.31.232-.378.154-.699.37-.961.649-.263.278-.472.61-.626.996a4.788 4.788 0 0 0-.29 1.252l-.602.348c0-.757.073-1.468.22-2.133.154-.664.39-1.251.707-1.761.316-.518.718-.92 1.205-1.206.495-.293 1.082-.44 1.762-.44.154 0 .332.02.533.058.2.03.34.066.417.104zm9.655 9.712V21.46h2.155V34h-2.051l-.105-2.898zm.405-2.642l.893-.023c0 .834-.09 1.607-.267 2.318a4.977 4.977 0 0 1-.834 1.831 3.948 3.948 0 0 1-1.519 1.217c-.626.286-1.387.429-2.283.429-.61 0-1.17-.09-1.68-.267a3.358 3.358 0 0 1-1.299-.823c-.363-.37-.645-.854-.846-1.448-.193-.595-.29-1.31-.29-2.145v-8.09h2.145v8.114c0 .564.062 1.031.185 1.402.132.363.305.653.522.87.224.208.471.355.741.44.279.085.564.127.858.127.912 0 1.634-.174 2.168-.521.533-.356.915-.831 1.147-1.426.24-.603.36-1.271.36-2.005zm12.32 2.214c0-.31-.07-.595-.208-.858-.132-.27-.406-.514-.823-.73-.41-.224-1.028-.417-1.855-.58a14.7 14.7 0 0 1-1.889-.521 5.727 5.727 0 0 1-1.425-.73 3.063 3.063 0 0 1-.893-1.009c-.208-.386-.313-.838-.313-1.356 0-.494.109-.962.325-1.402.224-.44.537-.83.939-1.17.41-.34.9-.607 1.472-.8a5.949 5.949 0 0 1 1.912-.29c1.004 0 1.862.178 2.573.533.71.355 1.255.83 1.634 1.426.379.587.568 1.24.568 1.958h-2.144a1.84 1.84 0 0 0-.313-1.008c-.201-.332-.499-.607-.892-.823-.387-.216-.862-.325-1.426-.325-.595 0-1.078.093-1.449.279-.363.177-.63.405-.8.683a1.721 1.721 0 0 0-.243.881c0 .232.039.44.116.626.085.178.232.344.44.499.209.146.503.285.881.417.379.131.862.263 1.449.394 1.028.232 1.874.51 2.538.834.665.325 1.16.723 1.484 1.194.324.471.486 1.043.486 1.715 0 .549-.115 1.051-.347 1.507-.224.456-.553.85-.985 1.182-.425.325-.935.58-1.53.765-.587.178-1.248.267-1.982.267-1.105 0-2.04-.197-2.805-.591-.765-.394-1.344-.904-1.738-1.53a3.66 3.66 0 0 1-.592-1.982h2.156c.031.587.201 1.055.51 1.402.31.34.688.584 1.136.73.448.14.892.21 1.333.21.587 0 1.078-.078 1.472-.233.402-.154.707-.367.915-.637.209-.27.313-.58.313-.927zM89.58 21.46v1.645H82.8V21.46h6.78zm-4.485-3.049h2.144v12.483c0 .425.066.746.197.962.131.216.301.36.51.429.209.07.433.104.672.104.178 0 .363-.016.556-.046.201-.039.352-.07.452-.093l.012 1.75a5.01 5.01 0 0 1-.672.15 5.11 5.11 0 0 1-.985.082 3.341 3.341 0 0 1-1.45-.313c-.44-.209-.791-.556-1.054-1.043-.255-.495-.382-1.16-.382-1.994v-12.47zm9.144 5.46v14.95h-2.156V21.46h1.97l.186 2.41zm8.449 3.755v.243c0 .912-.108 1.758-.324 2.538-.217.773-.533 1.445-.951 2.017a4.318 4.318 0 0 1-1.518 1.333c-.602.316-1.294.475-2.074.475-.796 0-1.5-.132-2.11-.394a4.16 4.16 0 0 1-1.553-1.148 5.863 5.863 0 0 1-1.02-1.808 10.466 10.466 0 0 1-.51-2.376v-1.298c.093-.927.267-1.757.522-2.492.255-.734.59-1.36 1.008-1.877a4.14 4.14 0 0 1 1.542-1.194c.602-.278 1.298-.417 2.086-.417.788 0 1.487.154 2.098.463a4.22 4.22 0 0 1 1.541 1.299c.417.564.73 1.24.939 2.028.216.78.324 1.65.324 2.607zm-2.155.243v-.244a7.57 7.57 0 0 0-.197-1.761 4.464 4.464 0 0 0-.615-1.46 2.925 2.925 0 0 0-1.043-.997c-.425-.247-.93-.371-1.518-.371-.54 0-1.012.093-1.414.278-.394.186-.73.437-1.008.753a4 4 0 0 0-.684 1.067c-.17.394-.298.803-.383 1.228v3.002c.155.54.371 1.05.65 1.53.278.471.648.854 1.112 1.147.464.286 1.047.43 1.75.43.58 0 1.078-.12 1.495-.36a3.026 3.026 0 0 0 1.043-1.008c.278-.426.483-.912.615-1.46a7.718 7.718 0 0 0 .197-1.774zm7.22-6.41V34h-2.156V21.46h2.156zm-2.318-3.326c0-.347.104-.641.313-.88.216-.24.533-.36.95-.36.41 0 .723.12.939.36.224.239.336.533.336.88 0 .333-.112.619-.336.858-.216.232-.529.348-.939.348-.417 0-.734-.116-.95-.348a1.26 1.26 0 0 1-.313-.858zm8.09-1.935V34h-2.156V16.198h2.156zm2.874 11.67v-.266c0-.904.132-1.742.394-2.515a5.989 5.989 0 0 1 1.136-2.028 5.066 5.066 0 0 1 1.797-1.344c.703-.325 1.491-.487 2.364-.487.881 0 1.673.162 2.376.487a5.045 5.045 0 0 1 1.808 1.344 5.863 5.863 0 0 1 1.147 2.028c.263.773.394 1.611.394 2.515v.267c0 .904-.131 1.742-.394 2.515a6.009 6.009 0 0 1-1.147 2.028 5.262 5.262 0 0 1-1.796 1.345c-.696.316-1.484.475-2.365.475-.881 0-1.673-.159-2.376-.475a5.376 5.376 0 0 1-1.808-1.345 6.14 6.14 0 0 1-1.136-2.028 7.785 7.785 0 0 1-.394-2.515zm2.144-.266v.267c0 .626.074 1.217.221 1.773.146.549.367 1.035.66 1.46.302.425.676.762 1.125 1.009.448.24.969.36 1.564.36.587 0 1.101-.12 1.542-.36a3.229 3.229 0 0 0 1.112-1.008c.294-.426.514-.912.661-1.46a6.62 6.62 0 0 0 .232-1.774v-.267c0-.618-.078-1.201-.232-1.75a4.518 4.518 0 0 0-.672-1.472 3.2 3.2 0 0 0-1.113-1.02c-.44-.247-.958-.37-1.553-.37-.587 0-1.105.123-1.553.37a3.337 3.337 0 0 0-1.113 1.02 4.649 4.649 0 0 0-.66 1.472 6.737 6.737 0 0 0-.221 1.75zm17.212-6.142v1.645h-6.781V21.46h6.781zm-4.486-3.049h2.144v12.483c0 .425.066.746.197.962.132.216.302.36.51.429.209.07.433.104.673.104.177 0 .363-.016.556-.046.201-.039.351-.07.452-.093l.011 1.75a4.981 4.981 0 0 1-.672.15c-.27.055-.599.082-.985.082a3.345 3.345 0 0 1-1.449-.313c-.44-.209-.792-.556-1.054-1.043-.255-.495-.383-1.16-.383-1.994v-12.47z" fill="#fff"/></svg>