<svg width="559" height="674" viewBox="0 0 559 674" fill="none" xmlns="http://www.w3.org/2000/svg">
<path d="M733.238 500.19C692.41 529.519 651.862 563.645 606.797 590.116C519.013 641.696 424.63 674.894 320.809 673.83C243.151 673.002 174.231 647.891 120.34 592.229C31.985 501.14 -8.10055 389.814 1.78935 263.518C8.98105 170.293 54.2717 94.4785 133.209 45.0452C182.317 14.3314 236.425 -12.3634 291.882 -28.1378C417.699 -63.9101 527.747 -14.6196 594.53 100.004C612.68 131.204 627.147 164.473 646.036 202.44L733.155 500.202L733.238 500.19ZM245.292 411.2C269.341 466.997 306.142 498.686 361.007 502.01C461.82 508.013 539.569 461.47 608.647 391.671C648.247 351.658 656.528 310.384 635.734 255.383C506.227 307.059 377.288 358.565 245.304 411.283L245.292 411.2ZM415.303 202.512C397.791 158.317 375.577 126.015 331.484 118.056C280.157 108.782 238.005 130.243 207.604 169.924C180.828 204.831 177.017 244.77 196.609 289.848C270.661 260.312 340.944 232.263 415.386 202.5L415.303 202.512Z" fill="#1AE0B0" fill-opacity="0.8"/>
</svg>
