<svg width="976" height="764" viewBox="0 0 976 764" fill="none" xmlns="http://www.w3.org/2000/svg">
<path d="M1142.94 841.924C1079.31 887.628 1016.13 940.808 945.902 982.058C809.106 1062.44 662.026 1114.17 500.239 1112.51C379.223 1111.22 271.823 1072.09 187.844 985.351C50.1578 843.405 -12.3086 669.923 3.10308 473.112C14.3101 327.837 84.8877 209.694 207.897 132.66C284.423 84.7982 368.743 43.1991 455.162 18.6175C651.226 -37.1275 822.717 39.6831 926.786 218.303C955.07 266.924 977.614 318.768 1007.05 377.933L1142.81 841.942L1142.94 841.924ZM382.559 703.249C420.036 790.198 477.383 839.581 562.881 844.76C719.98 854.115 841.139 781.585 948.785 672.816C1010.49 610.463 1023.4 546.145 990.995 460.435C789.18 540.962 588.253 621.227 382.578 703.378L382.559 703.249ZM647.492 378.045C620.203 309.175 585.586 258.838 516.875 246.435C436.891 231.983 371.205 265.426 323.829 327.263C282.104 381.658 276.164 443.896 306.696 514.142C422.093 468.116 531.616 424.406 647.622 378.026L647.492 378.045Z" fill="#F6F4F2" fill-opacity="0.05"/>
</svg>
