<svg width="1306" height="1267" viewBox="0 0 1306 1267" fill="none" xmlns="http://www.w3.org/2000/svg">
<path d="M1639.56 883.251C1547.97 947.679 1456.96 1022.59 1355.9 1080.8C1159.05 1194.23 947.568 1267.53 715.235 1266.02C541.451 1264.81 387.412 1210.47 267.245 1089.22C70.2259 890.804 -18.6121 647.78 4.50667 371.642C21.3289 167.813 123.277 1.74306 300.316 -106.925C410.454 -174.444 531.752 -233.216 655.981 -268.129C937.827 -347.303 1183.72 -240.423 1332.28 9.60115C1372.65 77.6583 1404.77 150.265 1446.74 233.106L1639.38 883.278L1639.56 883.251ZM548.287 692.547C601.671 814.32 683.78 883.3 806.536 890.136C1032.1 902.471 1206.46 800.129 1361.59 647.022C1450.52 559.253 1469.38 468.971 1423.27 348.911C1133.05 462.875 844.092 576.466 548.313 692.728L548.287 692.547ZM930.384 235.065C891.539 138.6 842.078 68.1678 743.465 51.1147C628.674 31.2435 534.175 78.4822 465.829 165.456C405.635 241.964 396.794 329.294 440.288 427.672C606.239 362.534 763.743 300.675 930.57 235.038L930.384 235.065Z" fill="#F6F4F2"/>
</svg>
